<mxfile host="65bd71144e">
    <diagram id="-85QABgI4HXADbrfDYne" name="第 1 页">
        <mxGraphModel dx="-817" dy="-1331" grid="1" gridSize="10" guides="1" tooltips="1" connect="1" arrows="1" fold="1" page="1" pageScale="1" pageWidth="1169" pageHeight="827" math="0" shadow="0">
            <root>
                <mxCell id="0"/>
                <mxCell id="1" parent="0"/>
                <mxCell id="2" value="CID = 1&lt;br&gt;退出" style="shape=cylinder3;whiteSpace=wrap;html=1;boundedLbl=1;backgroundOutline=1;size=15;" vertex="1" parent="1">
                    <mxGeometry x="1630" y="2150" width="50" height="70" as="geometry"/>
                </mxCell>
                <mxCell id="3" value="CID = 2&lt;br&gt;创建" style="shape=cylinder3;whiteSpace=wrap;html=1;boundedLbl=1;backgroundOutline=1;size=15;" vertex="1" parent="1">
                    <mxGeometry x="1690" y="2150" width="50" height="70" as="geometry"/>
                </mxCell>
                <mxCell id="4" value="CID = 3&lt;br&gt;数据库" style="shape=cylinder3;whiteSpace=wrap;html=1;boundedLbl=1;backgroundOutline=1;size=15;" vertex="1" parent="1">
                    <mxGeometry x="1750" y="2150" width="50" height="70" as="geometry"/>
                </mxCell>
                <mxCell id="5" value="CID = 4&lt;br&gt;删除" style="shape=cylinder3;whiteSpace=wrap;html=1;boundedLbl=1;backgroundOutline=1;size=15;" vertex="1" parent="1">
                    <mxGeometry x="1810" y="2150" width="50" height="70" as="geometry"/>
                </mxCell>
                <mxCell id="6" value="CID = 5&lt;br&gt;选择" style="shape=cylinder3;whiteSpace=wrap;html=1;boundedLbl=1;backgroundOutline=1;size=15;" vertex="1" parent="1">
                    <mxGeometry x="1870" y="2150" width="50" height="70" as="geometry"/>
                </mxCell>
                <mxCell id="7" value="CID = 6&lt;br&gt;重命名" style="shape=cylinder3;whiteSpace=wrap;html=1;boundedLbl=1;backgroundOutline=1;size=15;" vertex="1" parent="1">
                    <mxGeometry x="1630" y="2230" width="50" height="70" as="geometry"/>
                </mxCell>
                <mxCell id="8" value="CID = 7&lt;br&gt;登录" style="shape=cylinder3;whiteSpace=wrap;html=1;boundedLbl=1;backgroundOutline=1;size=15;" vertex="1" parent="1">
                    <mxGeometry x="1690" y="2230" width="50" height="70" as="geometry"/>
                </mxCell>
                <mxCell id="9" value="CID = 8&lt;br&gt;显示" style="shape=cylinder3;whiteSpace=wrap;html=1;boundedLbl=1;backgroundOutline=1;size=15;" vertex="1" parent="1">
                    <mxGeometry x="1750" y="2230" width="50" height="70" as="geometry"/>
                </mxCell>
                <mxCell id="10" value="CID = 9&lt;br&gt;插入" style="shape=cylinder3;whiteSpace=wrap;html=1;boundedLbl=1;backgroundOutline=1;size=15;" vertex="1" parent="1">
                    <mxGeometry x="1810" y="2230" width="50" height="70" as="geometry"/>
                </mxCell>
                <mxCell id="11" value="CID = 10&lt;br&gt;查询" style="shape=cylinder3;whiteSpace=wrap;html=1;boundedLbl=1;backgroundOutline=1;size=15;" vertex="1" parent="1">
                    <mxGeometry x="1870" y="2230" width="50" height="70" as="geometry"/>
                </mxCell>
                <mxCell id="13" value="CID = 11&lt;br&gt;表" style="shape=cylinder3;whiteSpace=wrap;html=1;boundedLbl=1;backgroundOutline=1;size=15;" vertex="1" parent="1">
                    <mxGeometry x="1630" y="2310" width="50" height="70" as="geometry"/>
                </mxCell>
                <mxCell id="14" value="CID = 12&lt;br&gt;普通用户" style="shape=cylinder3;whiteSpace=wrap;html=1;boundedLbl=1;backgroundOutline=1;size=15;" vertex="1" parent="1">
                    <mxGeometry x="1690" y="2310" width="50" height="70" as="geometry"/>
                </mxCell>
                <mxCell id="15" value="CID = 13&lt;br&gt;管理员" style="shape=cylinder3;whiteSpace=wrap;html=1;boundedLbl=1;backgroundOutline=1;size=15;" vertex="1" parent="1">
                    <mxGeometry x="1750" y="2310" width="50" height="70" as="geometry"/>
                </mxCell>
            </root>
        </mxGraphModel>
    </diagram>
</mxfile>